<svg width="24" height="24" viewBox="0 0 128 128" fill="currentColor" xmlns="http://www.w3.org/2000/svg">
  <!-- CPOS mark: pixelated "C". Monochrome (currentColor) for activity-bar / inline use. -->
  <rect x="34" y="22" width="11" height="11" rx="1.5"/>
  <rect x="46" y="22" width="11" height="11" rx="1.5"/>
  <rect x="58" y="22" width="11" height="11" rx="1.5"/>
  <rect x="70" y="22" width="11" height="11" rx="1.5"/>
  <rect x="82" y="22" width="11" height="11" rx="1.5"/>
  <rect x="22" y="34" width="11" height="11" rx="1.5"/>
  <rect x="34" y="34" width="11" height="11" rx="1.5"/>
  <rect x="46" y="34" width="11" height="11" rx="1.5"/>
  <rect x="58" y="34" width="11" height="11" rx="1.5"/>
  <rect x="70" y="34" width="11" height="11" rx="1.5"/>
  <rect x="82" y="34" width="11" height="11" rx="1.5"/>
  <rect x="94" y="34" width="11" height="11" rx="1.5"/>
  <rect x="22" y="46" width="11" height="11" rx="1.5"/>
  <rect x="34" y="46" width="11" height="11" rx="1.5"/>
  <rect x="22" y="58" width="11" height="11" rx="1.5"/>
  <rect x="34" y="58" width="11" height="11" rx="1.5"/>
  <rect x="22" y="70" width="11" height="11" rx="1.5"/>
  <rect x="34" y="70" width="11" height="11" rx="1.5"/>
  <rect x="22" y="82" width="11" height="11" rx="1.5"/>
  <rect x="34" y="82" width="11" height="11" rx="1.5"/>
  <rect x="46" y="82" width="11" height="11" rx="1.5"/>
  <rect x="58" y="82" width="11" height="11" rx="1.5"/>
  <rect x="70" y="82" width="11" height="11" rx="1.5"/>
  <rect x="82" y="82" width="11" height="11" rx="1.5"/>
  <rect x="94" y="82" width="11" height="11" rx="1.5"/>
  <rect x="34" y="94" width="11" height="11" rx="1.5"/>
  <rect x="46" y="94" width="11" height="11" rx="1.5"/>
  <rect x="58" y="94" width="11" height="11" rx="1.5"/>
  <rect x="70" y="94" width="11" height="11" rx="1.5"/>
  <rect x="82" y="94" width="11" height="11" rx="1.5"/>
</svg>
